<?xml version="1.0" encoding="UTF-8"?>
<!DOCTYPE svg PUBLIC "-//W3C//DTD SVG 1.1//EN" "http://www.w3.org/Graphics/SVG/1.1/DTD/svg11.dtd">
<!-- Creator: CorelDRAW 2020 (64 Bit) -->
<svg xmlns="http://www.w3.org/2000/svg" xml:space="preserve" width="297mm" height="210mm" version="1.1" shape-rendering="geometricPrecision" text-rendering="geometricPrecision" image-rendering="optimizeQuality" fill-rule="evenodd" clip-rule="evenodd"
viewBox="0 0 29700 21000"
 xmlns:xlink="http://www.w3.org/1999/xlink"
 xmlns:xodm="http://www.corel.com/coreldraw/odm/2003">
 <g id="Camada_x0020_1">
  <metadata id="CorelCorpID_0Corel-Layer"/>
  <g id="_1502770355904">
   <rect fill="#57A695" x="477.96" y="2681.45" width="28660.86" height="15443.16" rx="2453" ry="2353.54"/>
   <g>
    <g>
     <path fill="#52658C" d="M3332.89 8075.27l0 170.45c0,1014.88 479.33,2036.92 1034.95,2637.69l321.41 335.96c759.64,702.11 1441.35,1561.09 1981.43,2415.84 597.31,945.33 1063.71,1980.18 1253.9,3088.65l64.92 760.92c14.7,62.96 34.2,37.71 48.22,16.63 0,-477.72 100.64,-1045.95 218.6,-1476.18 244.24,-890.81 618.1,-1591.47 1083.45,-2369.48 228.56,-382.11 1026.47,-1467.67 1412.44,-1846.99 26.13,-25.68 28.57,-33.72 53.55,-59.81l486.29 -499.37c178.08,-176.42 265.94,-238.14 434.93,-449.6 301.57,-377.37 465.09,-638.2 656.61,-1084.8 450.95,-1051.55 407.4,-2402.49 -136.81,-3408.44 -136.94,-253.13 -259.57,-458.72 -424.04,-667.38 -130.33,-165.35 -240.51,-297.41 -392.6,-439.96 -52.41,-49.11 -78.06,-92.36 -137.92,-139.8 -101.58,-80.51 -193.69,-166.49 -300.76,-245.15 -388.83,-285.66 -593.4,-404.26 -1073.48,-614.34 -533.87,-233.63 -1245.74,-374.17 -1923.85,-374.17 -960.28,0 -1896.15,288.65 -2636.87,761.69 -220.43,140.78 -452.38,314.38 -635.12,483.55 -185.67,171.88 -365.72,362.2 -531.22,579.36 -137.25,180.1 -318.01,441.25 -425.94,676.88 -258.77,564.97 -432.09,1099.77 -432.09,1747.85z"/>
     <path id="1" fill="#FEFEFE" d="M3332.89 8075.27l0 170.45c0,1014.88 479.33,2036.92 1034.95,2637.69l321.41 335.96c759.64,702.11 1441.35,1561.09 1981.43,2415.84 597.31,945.33 1063.71,1980.18 1253.9,3088.65l64.92 760.92c14.7,62.96 34.2,37.71 48.22,16.63 0,-477.72 100.64,-1045.95 218.6,-1476.18 244.24,-890.81 618.1,-1591.47 1083.45,-2369.48 228.56,-382.11 1026.47,-1467.67 1412.44,-1846.99 26.13,-25.68 28.57,-33.72 53.55,-59.81l486.29 -499.37c178.08,-176.42 265.94,-238.14 434.93,-449.6 301.57,-377.37 465.09,-638.2 656.61,-1084.8 450.95,-1051.55 407.4,-2402.49 -136.81,-3408.44 -136.94,-253.13 -259.57,-458.72 -424.04,-667.38 -130.33,-165.35 -240.51,-297.41 -392.6,-439.96 -52.41,-49.11 -78.06,-92.36 -137.92,-139.8 -101.58,-80.51 -193.69,-166.49 -300.76,-245.15 -388.83,-285.66 -593.4,-404.26 -1073.48,-614.34 -533.87,-233.63 -1245.74,-374.17 -1923.85,-374.17 -960.28,0 -1896.15,288.65 -2636.87,761.69 -220.43,140.78 -452.38,314.38 -635.12,483.55 -185.67,171.88 -365.72,362.2 -531.22,579.36 -137.25,180.1 -318.01,441.25 -425.94,676.88 -258.77,564.97 -432.09,1099.77 -432.09,1747.85zm-400 170.45l0 -170.45c0,-358.51 48.45,-687.62 133.07,-1006.65 81.79,-308.42 197.82,-604.02 336.52,-906.83 56.07,-122.41 125.98,-246.24 199.39,-362.9 92.12,-146.4 189.75,-282.79 271.86,-390.54 91.06,-119.48 185.25,-230.64 281.49,-334.78 89.71,-97.08 189.66,-195.58 296.61,-294.58 103.89,-96.17 213.74,-187.75 323.04,-270.96 115.26,-87.74 241.16,-175.12 368.33,-256.34 408.65,-260.97 870.81,-469.86 1362.09,-611.77 478.31,-138.16 982.05,-213.98 1488.84,-213.98 361.01,0 732.81,37.62 1087.07,106.52 358.67,69.75 700.45,172.62 996.16,302.02 258.06,112.92 441.13,200.73 610.02,297.58 171.83,98.54 331.25,207.14 540.02,360.51 75.7,55.61 139.36,109.48 202.85,163.19 35.86,30.34 71.68,60.64 110.41,91.34 58.9,46.69 95.18,87.66 132.23,129.51 8.76,9.89 17.68,19.97 30.69,32.16 89.13,83.53 162.86,160.46 231.02,238 66.91,76.12 131.71,156.28 202.2,245.71 85.45,108.42 165.32,224.46 245.78,352.95 80.83,129.06 148.68,248.24 215.76,372.25 299.54,553.68 461.96,1199.77 488.1,1851 26.32,656.02 -85.86,1320.23 -335.66,1902.75 -103.6,241.6 -200.56,434.45 -313.6,619.92 -109.11,179.03 -234.94,351.44 -399.26,557.07 -142.45,178.26 -228.44,259.32 -336.88,361.54 -40.05,37.76 -83.44,78.67 -124.13,118.86l-482.84 495.82c-0.27,0.29 -0.54,0.58 -0.81,0.87l-4.18 4.38c-15.66,19.03 -30.45,36.99 -57.18,63.25 -158.96,156.22 -403.76,455.8 -645.95,772.52 -299.3,391.37 -586.15,797.76 -703.99,994.78 -225.8,377.52 -429.36,736.15 -605.89,1108.06 -174.06,366.68 -320.87,743.8 -435.37,1161.42 -57.49,209.71 -111.36,461.02 -150.21,723.41 -32.57,219.95 -52.77,443.15 -52.77,648.08l-0.86 0c0.07,75.77 -21.37,152.4 -66.33,220.31 -55.34,83.2 -131.18,175.83 -306.67,198.2 -209.28,26.71 -384.42,-44.47 -457.45,-320.6 -7.79,-26.14 -13.02,-53.46 -15.35,-81.73l-63.68 -746.43c-90.33,-516.41 -244.47,-1017.03 -445.83,-1499.67 -206.48,-494.93 -461.76,-970.16 -748.37,-1423.78 -271.1,-429.06 -577.91,-857.98 -911.71,-1264.96 -314.1,-382.96 -650.75,-746.05 -1002.53,-1071.19l0.15 -0.16c-5.91,-5.47 -11.7,-11.13 -17.34,-17.03l-312.73 -326.89c-4.54,-4.46 -9,-9.04 -13.37,-13.76 -326.05,-352.54 -626.49,-830.24 -835.6,-1363.18 -189.12,-482 -307.16,-1013.46 -307.16,-1544.82z"/>
    </g>
    <path fill="#FEFEFE" fill-rule="nonzero" d="M8028.96 7264.65l0 1583.67 -477.62 0 0 2267.53 -1719.44 0 0 -6001.75 1719.44 0 0 2150.55 477.62 0zm2014.69 -2150.55l0 6001.75 -1719.44 0 0 -6001.75 1719.44 0z"/>
    <path id="1" fill="none" fill-rule="nonzero" stroke="#FEFEFE" stroke-width="500" stroke-linecap="round" stroke-linejoin="round" stroke-miterlimit="22.9256" d="M8028.96 7264.65l0 1583.67 -477.62 0 0 2267.53 -1719.44 0 0 -6001.75 1719.44 0 0 2150.55 477.62 0zm2014.69 -2150.55l0 6001.75 -1719.44 0 0 -6001.75 1719.44 0z"/>
    <path fill="#E6E7E8" stroke="#96989A" stroke-width="20" stroke-miterlimit="22.9256" d="M8989.18 7471.07c-0.03,-141.23 -38.25,-358.95 79.56,-364.76 25.27,185.74 5.6,1276.65 2.18,1601.94 -2.12,200.6 14.42,356.48 -81.88,430.77l0.17 -191.62 -0.03 -1476.33zm-3251.66 1678.77c-39.31,-74.98 -17.53,-1503.85 -17.53,-1638.87 0,-121.97 -48.49,-416.99 86.67,-404.82 34.58,344.01 -5.82,1167.66 -5.1,1581.79 0.36,207.1 19.8,327.93 -64.04,461.9zm1244.09 -1152.55c91.12,1.39 644.78,-127.34 960.91,-126.72 192.99,0.37 842.14,60.82 974.65,139.15l-0.22 230.49c-327.78,26.92 -719.75,102.72 -973.69,-91.12 -240.94,-183.92 -656.01,-118.37 -961.65,-151.8zm2176.76 -895.55c140.47,-21.27 764.98,-23.91 881.64,4.97 68.4,125.61 37.82,390.4 -26.98,541.31 -217.78,507.08 -644.7,-433.27 -860.32,918.28l5.66 -1464.56zm-3267.15 -4.63c128.1,-12.92 785.45,-27.45 862.9,9.2 119.9,96.8 48.35,400.7 0.9,527.1 -83.71,223.01 -182.63,189.42 -378.5,158.68 -406.63,-63.82 -444.13,635.66 -489.77,777.98l4.47 -1472.96zm1082.54 787.6c-78.01,-1011.06 247.49,-867.8 -781.55,-867.8 -93.36,0 -304.99,-13.03 -384.71,4.15 -124.71,26.87 -122.03,138.29 -121.26,290.03l-0.05 1776.41c-0.85,151.33 0.64,266.43 130.83,286.71 93.55,14.56 1049.3,24.59 1113.19,-40.01 76.3,-77.12 39.32,-655.71 40.09,-824.77 317.47,32.32 641.66,119.34 972.2,119.22 331.77,-0.12 650.33,-90.3 968.81,-119.07 -1.05,152.48 -0.23,305.25 -0.26,457.77 -0.03,127.92 -25.94,317.69 52.31,377.19 72.89,55.44 1085.09,39.05 1135.17,22.37 110.69,-36.88 95.99,-171.88 95.81,-319.65 -0.35,-292.63 0,-585.29 0,-877.92 0,-1319.42 106.49,-1152.43 -518.53,-1152.43 -1032.71,0 -679.03,-122.66 -769.29,869.05 -305.1,-44.07 -652.95,-120.65 -964.01,-120.93 -327.28,-0.29 -654.86,88.63 -968.75,119.68z"/>
    <path fill="#FEFEFE" d="M5886.75 8570.07c45.64,-142.32 83.14,-841.8 489.77,-777.98 195.87,30.74 294.79,64.33 378.5,-158.68 47.45,-126.4 119,-430.3 -0.9,-527.1 -77.45,-36.65 -734.8,-22.12 -862.9,-9.2l-4.47 1472.96z"/>
    <path fill="#FEFEFE" d="M9152.71 8566.3c215.62,-1351.55 642.54,-411.2 860.32,-918.28 64.8,-150.91 95.38,-415.7 26.98,-541.31 -116.66,-28.88 -741.17,-26.24 -881.64,-4.97l-5.66 1464.56z"/>
    <path fill="#FEFEFE" d="M6981.61 7997.29c305.64,33.43 720.71,-32.12 961.65,151.8 253.94,193.84 645.91,118.04 973.69,91.12l0.22 -230.49c-132.51,-78.33 -781.66,-138.78 -974.65,-139.15 -316.13,-0.62 -869.79,128.11 -960.91,126.72z"/>
    <path fill="#E6E7E8" d="M5737.52 9149.84c83.84,-133.97 64.4,-254.8 64.04,-461.9 -0.72,-414.13 39.68,-1237.78 5.1,-1581.79 -135.16,-12.17 -86.67,282.85 -86.67,404.82 0,135.02 -21.78,1563.89 17.53,1638.87z"/>
    <path fill="#E6E7E8" d="M8989.21 8947.4l-0.17 191.62c96.3,-74.29 79.76,-230.17 81.88,-430.77 3.42,-325.29 23.09,-1416.2 -2.18,-1601.94 -117.81,5.81 -79.59,223.53 -79.56,364.76l0.03 1476.33z"/>
    <g>
     <path fill="#EB1C23" d="M7087.32 8164.47c3.18,-0.87 12.63,-1.85 15.1,-2 5.34,-0.33 24.74,-1.42 27.26,-1.26 51.08,3.13 10.22,-22.24 43.47,15.35 -9.47,-24.3 -84.57,-180.05 -114.01,-184.85 -60.81,8.02 -53.92,60.25 -89.64,96.03 -18.46,-33.89 -33.99,-124.12 -44.5,-167.91 -15.81,-65.9 -11.02,-139.92 -81.58,-139.68 -43.85,44.75 -140.03,749.6 -167.69,870.17 -30.24,-88.44 -118.47,-874.68 -137.21,-1029.12 -10.89,-89.73 -7.01,-225.23 -65.85,-219.94 -49.9,4.48 -51.37,159.01 -60.4,237.96 -19.87,173.66 -49.34,356.92 -65.83,528.71l-136.28 -0.21c-13.21,-36.45 -76.15,-197.04 -117.11,-197.05 -39.49,12.02 -38.28,24.52 -57.71,66.71l-131.53 264.47c-11.12,-11.57 -14.67,-16.05 -26.64,-38.44 -8.71,-16.31 -14.07,-30.22 -21.38,-45.02 -21.33,-43.12 -31.57,-50.93 -90.59,-51.06l-738.61 0.22c-55.87,-0.14 -86.03,3.56 -76.55,59.85 59.85,31.19 700.16,12.33 829.59,14.01 17.92,34.67 34.37,65.42 51.6,100.44 80.9,164.38 93.88,89.03 170.82,-59.4 29.89,-57.66 54.61,-131.12 91,-176.14l70.02 130.14c45.61,10.5 200.83,13.4 241.07,-3.94 24.36,-18.07 65.81,-425.14 72.28,-462.11 20.65,84.77 28.28,204.77 39.5,294.89l82.27 626.43c23.54,172.38 5.55,267.45 89.77,261.8 39.53,-54.36 75.94,-356.3 94.14,-455.01 22.45,-121.81 62.83,-428.09 90,-466.26 17.94,56.15 25.95,182.6 77.48,208.18 60.44,-11.53 73.56,-87.09 102.65,-127.62l35.09 51.66z"/>
     <path fill="#EB1C23" d="M9025.51 8165.2c26.57,15.08 44.29,18.91 66.04,36.14l55.05 -430.77c22.19,74.85 31.41,207.43 41.83,292.44l79.93 610.67c11.17,79.43 14.38,231.59 54.23,280.84 64.02,1.46 57.9,-30.17 66.21,-81.86l64.45 -365.12c25.33,-138.48 49.86,-360.53 89.45,-487.15 16.03,61.43 28.45,177.44 66.12,216.22 58.2,27.34 78.93,-88.65 123.33,-121.54 19.68,51.47 55.46,109.2 83.44,162.01 71.01,134.01 89.15,214.64 169.77,60.68 18.04,-34.47 35.81,-67.4 52.51,-96.91l795.99 1.15c38.31,35.77 50.61,76.16 128.33,69.8 131.61,-10.77 138.16,-191.57 9.3,-211.14 -78.11,-11.87 -102.7,33.7 -137.63,66.63 -172.9,5.38 -354.06,0.84 -527.86,0.82 -378.32,-0.02 -300.39,-35.3 -384.15,127.57 -2.1,-1.73 -4.64,-4.18 -5.94,-5.55 -1.28,-1.35 -4.18,-3.93 -5.69,-5.61 -1.45,-1.63 -3.69,-3.87 -5.21,-5.71 -1.46,-1.77 -3.2,-3.96 -4.59,-5.83l-116 -215.43c-73.16,-146.19 -94.33,-22.48 -143.53,32.77 -14.39,-57.34 -29.87,-114.8 -44.01,-173.27 -13.2,-54.53 -12.63,-125.43 -67.74,-138.26 -56.15,24.25 -52.47,138.66 -62.61,197.01 -32.67,188.05 -79.28,512.47 -117.68,669.86 -27.44,-61.47 -106.26,-776.13 -127.27,-941.96 -10.02,-79.07 -12.67,-255.28 -54.21,-301.05 -71.2,-3.56 -57.22,32.56 -72.27,154.62 -8.57,69.48 -16.09,132.14 -24.84,200.74 -11.24,88.14 -53.45,334.78 -44.75,407.19z"/>
     <path fill="#E42433" d="M7173.15 8176.56c-33.25,-37.59 7.61,-12.22 -43.47,-15.35 -2.52,-0.16 -21.92,0.93 -27.26,1.26 -2.47,0.15 -11.92,1.13 -15.1,2 9.1,28.51 113.11,231.82 127.38,244.19 65.73,56.98 112.57,-121.26 153.19,-167.72l1084.22 -0.2c40.01,72.55 80.83,200.93 130.86,191.22 46.85,-25.53 148.54,-268.69 181.34,-330.15 25.92,34.96 45.35,107.1 77.61,131.31 38.95,14.85 186.83,12.67 237.47,3.36l12.16 -35.14c-21.75,-17.23 -39.47,-21.06 -66.04,-36.14l-133.79 1.06c-32.56,-42.49 -65.75,-173.63 -119.52,-195.55 -72.12,-6.66 -127.01,259.74 -199.19,330.63 -89.96,-122.19 1.46,-134.18 -209.15,-133.55 -163.39,0.5 -1007.9,-11.13 -1040,2.33 -36.2,31.07 -54.28,85.13 -81.78,128.56l-68.93 -122.12z"/>
    </g>
   </g>
   <path fill="#FEFEFE" fill-rule="nonzero" d="M13259.79 6693.92l0 4382.08 -1622.36 0 0 -4382.08 1622.36 0zm-802.31 -1952.6c220.15,0 409.27,77.99 570.33,235.45 161.05,155.97 240.83,341.93 240.83,556.39 0,227.95 -75.35,416.91 -227.54,562.38 -152.19,146.97 -345.74,220.45 -583.62,220.45 -236.41,0 -431.45,-73.48 -583.64,-220.45 -152.19,-145.47 -227.54,-334.43 -227.54,-562.38 0,-214.46 79.78,-400.42 240.84,-556.39 161.05,-157.46 350.17,-235.45 570.34,-235.45z"/>
   <path id="1" fill="#FEFEFE" fill-rule="nonzero" d="M16513.35 9268.88l0 1508.68c-233.46,85.48 -456.56,127.48 -669.34,127.48 -521.57,0 -963.35,-200.96 -1323.88,-601.38 -362,-400.41 -542.26,-890.81 -542.26,-1469.69 0,-626.87 217.2,-1154.76 651.6,-1585.17 435.88,-430.41 969.28,-644.87 1603.14,-644.87 336.89,0 658.99,68.99 967.8,206.96 307.33,136.47 549.65,320.93 725.48,553.39 294.03,382.42 440.31,938.8 440.31,1667.65l0 1441.2c0,782.83 -218.68,1417.2 -654.56,1904.6 -435.88,487.4 -1003.26,731.85 -1703.61,731.85 -212.78,0 -481.69,-53.99 -806.75,-163.47l0 -1492.19c209.82,113.98 421.1,170.97 635.35,170.97 289.6,0 512.71,-97.48 670.8,-290.94 158.11,-193.46 236.41,-472.41 236.41,-833.83l0 -1648.16c0,-460.4 -180.26,-691.35 -540.78,-691.35 -153.66,0 -288.12,61.49 -403.37,182.96 -115.25,121.48 -172.87,260.95 -172.87,419.91 0,166.47 54.67,305.94 165.48,418.42 109.34,110.97 245.27,166.46 407.81,166.46 109.33,0 212.76,-26.99 313.24,-79.48z"/>
   <path id="2" fill="#FEFEFE" fill-rule="nonzero" d="M20943.06 6693.92l0 4382.08 -1622.36 0 0 -4382.08 1622.36 0zm-802.31 -1952.6c220.15,0 409.27,77.99 570.33,235.45 161.05,155.97 240.83,341.93 240.83,556.39 0,227.95 -75.35,416.91 -227.54,562.38 -152.19,146.97 -345.74,220.45 -583.62,220.45 -236.41,0 -431.45,-73.48 -583.64,-220.45 -152.19,-145.47 -227.54,-334.43 -227.54,-562.38 0,-214.46 79.78,-400.42 240.84,-556.39 161.05,-157.46 350.17,-235.45 570.34,-235.45z"/>
   <path id="3" fill="#FEFEFE" fill-rule="nonzero" d="M24294.13 9432.34l0 1700.65c-132.97,22.49 -254.14,32.99 -363.47,32.99 -648.64,0 -1187.95,-217.45 -1620.88,-650.86 -432.92,-433.41 -648.64,-976.3 -648.64,-1630.16 0,-635.87 218.67,-1174.26 656.03,-1616.66 435.88,-442.41 967.79,-664.37 1594.28,-664.37 697.4,0 1247.06,206.96 1650.42,622.37 401.9,415.42 602.84,982.3 602.84,1700.65l0 2149.05 -1622.34 0 0 -2030.58c0,-230.95 -54.68,-415.41 -165.49,-553.38 -109.34,-136.47 -258.57,-205.46 -444.74,-205.46 -168.45,0 -314.73,62.99 -437.36,188.96 -122.63,125.98 -184.69,274.45 -184.69,446.91 0,181.46 56.15,331.43 166.96,448.41 112.29,116.97 254.14,175.46 425.53,175.46 140.37,0 271.88,-37.49 391.55,-113.98z"/>
   <path id="4" fill="none" fill-rule="nonzero" stroke="#52658C" stroke-width="500" stroke-linecap="round" stroke-linejoin="round" stroke-miterlimit="22.9256" d="M13259.79 6693.92l0 4382.08 -1622.36 0 0 -4382.08 1622.36 0zm-802.31 -1952.6c220.15,0 409.27,77.99 570.33,235.45 161.05,155.97 240.83,341.93 240.83,556.39 0,227.95 -75.35,416.91 -227.54,562.38 -152.19,146.97 -345.74,220.45 -583.62,220.45 -236.41,0 -431.45,-73.48 -583.64,-220.45 -152.19,-145.47 -227.54,-334.43 -227.54,-562.38 0,-214.46 79.78,-400.42 240.84,-556.39 161.05,-157.46 350.17,-235.45 570.34,-235.45z"/>
   <path id="5" fill="none" fill-rule="nonzero" stroke="#52658C" stroke-width="500" stroke-linecap="round" stroke-linejoin="round" stroke-miterlimit="22.9256" d="M16513.35 9268.88l0 1508.68c-233.46,85.48 -456.56,127.48 -669.34,127.48 -521.57,0 -963.35,-200.96 -1323.88,-601.38 -362,-400.41 -542.26,-890.81 -542.26,-1469.69 0,-626.87 217.2,-1154.76 651.6,-1585.17 435.88,-430.41 969.28,-644.87 1603.14,-644.87 336.89,0 658.99,68.99 967.8,206.96 307.33,136.47 549.65,320.93 725.48,553.39 294.03,382.42 440.31,938.8 440.31,1667.65l0 1441.2c0,782.83 -218.68,1417.2 -654.56,1904.6 -435.88,487.4 -1003.26,731.85 -1703.61,731.85 -212.78,0 -481.69,-53.99 -806.75,-163.47l0 -1492.19c209.82,113.98 421.1,170.97 635.35,170.97 289.6,0 512.71,-97.48 670.8,-290.94 158.11,-193.46 236.41,-472.41 236.41,-833.83l0 -1648.16c0,-460.4 -180.26,-691.35 -540.78,-691.35 -153.66,0 -288.12,61.49 -403.37,182.96 -115.25,121.48 -172.87,260.95 -172.87,419.91 0,166.47 54.67,305.94 165.48,418.42 109.34,110.97 245.27,166.46 407.81,166.46 109.33,0 212.76,-26.99 313.24,-79.48z"/>
   <path id="6" fill="none" fill-rule="nonzero" stroke="#52658C" stroke-width="500" stroke-linecap="round" stroke-linejoin="round" stroke-miterlimit="22.9256" d="M20943.06 6693.92l0 4382.08 -1622.36 0 0 -4382.08 1622.36 0zm-802.31 -1952.6c220.15,0 409.27,77.99 570.33,235.45 161.05,155.97 240.83,341.93 240.83,556.39 0,227.95 -75.35,416.91 -227.54,562.38 -152.19,146.97 -345.74,220.45 -583.62,220.45 -236.41,0 -431.45,-73.48 -583.64,-220.45 -152.19,-145.47 -227.54,-334.43 -227.54,-562.38 0,-214.46 79.78,-400.42 240.84,-556.39 161.05,-157.46 350.17,-235.45 570.34,-235.45z"/>
   <path id="7" fill="none" fill-rule="nonzero" stroke="#52658C" stroke-width="500" stroke-linecap="round" stroke-linejoin="round" stroke-miterlimit="22.9256" d="M24294.13 9432.34l0 1700.65c-132.97,22.49 -254.14,32.99 -363.47,32.99 -648.64,0 -1187.95,-217.45 -1620.88,-650.86 -432.92,-433.41 -648.64,-976.3 -648.64,-1630.16 0,-635.87 218.67,-1174.26 656.03,-1616.66 435.88,-442.41 967.79,-664.37 1594.28,-664.37 697.4,0 1247.06,206.96 1650.42,622.37 401.9,415.42 602.84,982.3 602.84,1700.65l0 2149.05 -1622.34 0 0 -2030.58c0,-230.95 -54.68,-415.41 -165.49,-553.38 -109.34,-136.47 -258.57,-205.46 -444.74,-205.46 -168.45,0 -314.73,62.99 -437.36,188.96 -122.63,125.98 -184.69,274.45 -184.69,446.91 0,181.46 56.15,331.43 166.96,448.41 112.29,116.97 254.14,175.46 425.53,175.46 140.37,0 271.88,-37.49 391.55,-113.98z"/>
   <path fill="#FEFEFE" fill-rule="nonzero" d="M18633.11 11540.28l249 0c49.42,0 86.1,3.53 110.3,10.6 24.35,7.31 45.94,22.2 65.07,44.65 19.14,22.7 35.08,52.72 47.83,90.31 12.76,37.59 19.13,79.97 19.13,126.64 0,50.46 -7.83,97.13 -23.48,139.26 -15.65,42.38 -36.95,73.91 -63.77,95.1 37.83,19.43 66.82,52.22 87.25,98.64 20.29,46.42 30.44,100.91 30.44,163.72 0,49.45 -6.52,97.38 -19.71,144.05 -13.19,46.67 -31.16,84.01 -54.06,112.01 -22.76,27.75 -50.87,44.91 -84.36,51.46 -20.86,3.79 -71.45,6.31 -151.59,7.32l-212.05 0 0 -1083.76zm126.1 180.12l0 249.75 82.32 0c48.85,0 79.28,-1.26 91.16,-3.78 21.46,-4.29 38.41,-17.16 50.73,-38.6 12.32,-21.44 18.41,-49.45 18.41,-84.26 0,-33.55 -5.36,-60.54 -15.95,-81.48 -10.57,-20.94 -26.37,-33.55 -47.25,-37.84 -12.46,-2.53 -48.25,-3.79 -107.25,-3.79l-72.17 0zm0 429.87l0 290.62 116.53 0c45.22,0 74.06,-2.27 86.23,-6.56 18.7,-6.05 33.92,-20.43 45.66,-43.39 11.74,-23.21 17.68,-53.73 17.68,-92.33 0,-32.8 -4.5,-60.29 -13.63,-83 -8.98,-22.7 -22.17,-39.35 -39.28,-49.7 -17.1,-10.34 -54.34,-15.64 -111.59,-15.64l-101.6 0z"/>
   <path id="1" fill="#FEFEFE" fill-rule="nonzero" d="M19558.52 12624.04l0 -117.56c-16.52,41.88 -38.12,75.18 -64.93,100.15 -26.81,24.73 -55.07,37.09 -84.79,37.09 -30.44,0 -57.68,-11.61 -81.74,-34.82 -24.21,-23.21 -41.6,-56 -52.32,-97.88 -10.87,-42.13 -16.24,-100.15 -16.24,-174.32l0 -498.23 119.14 0 0 361.75c0,110.75 2.18,178.36 6.67,203.33 4.34,24.98 12.32,44.91 24.05,59.29 11.6,14.63 26.39,21.95 44.36,21.95 20.43,0 38.69,-9.84 54.93,-29.27 16.23,-19.42 27.25,-43.64 33.19,-72.65 5.94,-29.01 8.98,-99.65 8.98,-212.41l0 -331.99 119.14 0 0 785.57 -110.44 0z"/>
   <path id="2" fill="#FEFEFE" fill-rule="nonzero" d="M19748.82 12403.05l120 -31.79c5.07,40.11 15.37,70.64 31.02,91.33 15.51,20.93 37.4,31.28 65.37,31.28 30.87,0 54.05,-9.84 69.71,-29.52 10.43,-13.87 15.65,-32.54 15.65,-55.75 0,-15.64 -2.9,-28.76 -8.55,-39.1 -5.94,-9.84 -19.27,-19.17 -39.86,-27.5 -96.38,-37.08 -157.39,-70.89 -183.19,-101.41 -35.8,-42.64 -53.63,-101.67 -53.63,-177.1 0,-68.36 15.51,-125.63 46.38,-172.05 30.87,-46.41 78.7,-69.62 143.49,-69.62 61.74,0 107.68,17.66 137.68,52.72 30.01,35.32 50.73,87.29 62.04,156.16l-112.18 36.32c-4.78,-30.77 -14.06,-54.49 -27.54,-70.88 -13.48,-16.4 -32.75,-24.47 -57.83,-24.47 -31.59,0 -54.21,7.56 -67.97,22.95 -9.14,10.85 -13.63,24.98 -13.63,42.13 0,14.89 3.91,27.5 11.89,37.84 10.87,13.88 48.11,33.3 111.88,58.53 63.77,25.23 108.27,56 133.49,92.58 25.07,36.83 37.53,88.55 37.53,154.65 0,71.89 -17.24,133.95 -51.88,185.67 -34.49,51.71 -85.65,77.7 -153.48,77.7 -61.46,0 -110.15,-21.7 -146.1,-64.84 -35.8,-43.14 -59.27,-101.66 -70.29,-175.83z"/>
   <path id="3" fill="#FEFEFE" fill-rule="nonzero" d="M20569.87 12922.23l0 -392.29c-15.65,34.82 -35.08,62.57 -58.26,83 -23.34,20.43 -48.41,30.78 -75.37,30.78 -51.31,0 -93.63,-33.55 -126.82,-100.66 -39.13,-78.46 -58.69,-184.91 -58.69,-319.12 0,-126.39 18.4,-225.03 55.07,-295.92 36.81,-70.89 82.47,-106.2 136.96,-106.2 30.15,0 56.09,10.84 78.12,32.79 22.03,21.7 41.6,55 58.55,99.9l0 -116.04 109.58 0 0 1083.76 -119.14 0zm3.48 -699.05c0,-80.73 -9.42,-141.02 -28.12,-180.37 -18.84,-39.36 -42.32,-59.04 -70.58,-59.04 -28.84,0 -52.9,20.19 -72.32,60.3 -19.28,40.11 -28.99,103.68 -28.99,190.97 0,86.53 9.28,149.09 27.97,187.69 18.7,38.34 41.74,57.52 69.13,57.52 27.4,0 51.31,-21.45 72.04,-64.59 20.58,-43.13 30.87,-107.46 30.87,-192.48z"/>
   <path id="4" fill="#FEFEFE" fill-rule="nonzero" d="M21104.54 12624.04l0 -117.56c-16.53,41.88 -38.12,75.18 -64.94,100.15 -26.81,24.73 -55.07,37.09 -84.78,37.09 -30.44,0 -57.68,-11.61 -81.74,-34.82 -24.21,-23.21 -41.6,-56 -52.33,-97.88 -10.87,-42.13 -16.23,-100.15 -16.23,-174.32l0 -498.23 119.14 0 0 361.75c0,110.75 2.17,178.36 6.67,203.33 4.34,24.98 12.31,44.91 24.05,59.29 11.59,14.63 26.38,21.95 44.35,21.95 20.44,0 38.7,-9.84 54.93,-29.27 16.23,-19.42 27.25,-43.64 33.19,-72.65 5.94,-29.01 8.99,-99.65 8.99,-212.41l0 -331.99 119.14 0 0 785.57 -110.44 0z"/>
   <path id="5" fill="#FEFEFE" fill-rule="nonzero" d="M21598.33 12375.8l119.13 34.82c-15.21,75.93 -39.42,133.7 -72.32,173.56 -33.04,39.61 -74.35,59.54 -123.78,59.54 -78.4,0 -136.52,-44.65 -174.06,-133.96 -29.71,-71.64 -44.64,-161.96 -44.64,-271.19 0,-130.17 19.57,-232.34 58.55,-306.01 39,-73.91 88.42,-110.74 148.13,-110.74 66.96,0 119.86,38.59 158.7,115.79 38.7,77.19 57.25,195.51 55.51,354.95l-298.27 0c0.86,61.55 10.43,109.48 28.84,143.79 18.26,34.31 41.16,51.46 68.41,51.46 18.7,0 34.35,-8.83 46.96,-26.49 12.75,-17.65 22.32,-46.16 28.84,-85.52zm6.95 -210.39c-0.86,-60.29 -9.7,-106.21 -26.66,-137.49 -16.96,-31.53 -37.54,-47.17 -61.89,-47.17 -25.95,0 -47.39,16.65 -64.35,49.69 -16.96,33.05 -25.22,78.21 -24.93,134.97l177.83 0z"/>
   <path id="6" fill="#FEFEFE" fill-rule="nonzero" d="M22059.22 11838.47l111.31 0 0 115.28c14.49,-39.35 33.91,-71.14 58.55,-95.61 24.64,-24.21 52.03,-36.32 82.04,-36.32 52.32,0 96.81,35.82 133.33,107.46 36.53,71.4 54.79,171.3 54.79,298.95 0,131.43 -18.41,233.35 -55.22,306.25 -36.82,72.91 -81.45,109.24 -133.92,109.24 -24.93,0 -47.54,-8.58 -67.83,-25.99 -20.15,-17.15 -41.6,-46.67 -63.92,-88.54l0 393.04 -119.13 0 0 -1083.76zm117.4 380.67c0,88.55 9.99,153.89 30.14,196.27 20,42.13 44.5,63.32 73.2,63.32 27.68,0 50.72,-19.42 69.13,-58.27 18.4,-38.85 27.53,-102.43 27.53,-190.97 0,-82.75 -9.42,-144.05 -28.4,-184.16 -18.84,-40.11 -42.33,-60.04 -70.3,-60.04 -29.13,0 -53.33,19.68 -72.46,59.03 -19.28,39.35 -28.84,97.63 -28.84,174.82z"/>
   <path id="7" fill="#FEFEFE" fill-rule="nonzero" d="M22566.06 12221.67c0,-69.13 9.71,-135.98 29.27,-200.56 19.57,-64.83 47.25,-114.03 83.05,-148.08 35.8,-34.06 75.65,-51.21 119.86,-51.21 68.26,0 124.06,38.59 167.69,115.79 43.63,77.45 65.37,174.82 65.37,292.89 0,119.07 -22.04,217.71 -65.95,295.91 -44.06,78.21 -99.42,117.31 -166.24,117.31 -41.31,0 -80.73,-16.4 -118.27,-48.94 -37.39,-32.55 -65.94,-80.23 -85.51,-143.29 -19.56,-62.82 -29.27,-139.51 -29.27,-229.82zm122.61 11.1c0,77.95 10.58,137.74 31.74,179.11 21.31,41.62 47.4,62.31 78.56,62.31 31.01,0 57.1,-20.69 78.11,-62.31 21.02,-41.37 31.6,-101.67 31.6,-180.63 0,-76.94 -10.58,-136.22 -31.6,-177.6 -21.01,-41.62 -47.1,-62.31 -78.11,-62.31 -31.16,0 -57.25,20.69 -78.56,62.31 -21.16,41.38 -31.74,101.16 -31.74,179.12z"/>
   <path id="8" fill="#FEFEFE" fill-rule="nonzero" d="M23238.99 12624.04l-119.14 0 0 -785.57 110.44 0 0 111.5c18.99,-52.72 36.09,-87.29 51.31,-103.68 15.21,-16.4 32.46,-24.47 51.74,-24.47 27.25,0 53.48,13.11 78.7,39.1l-36.96 181.13c-20.15,-22.71 -38.84,-34.06 -56.09,-34.06 -16.81,0 -31.02,8.08 -42.61,23.97 -11.6,16.14 -20.72,44.9 -27.39,86.78 -6.67,41.88 -10,129.67 -10,263.12l0 242.18z"/>
   <path id="9" fill="#FEFEFE" fill-rule="nonzero" d="M23662.48 12403.05l120.01 -31.79c5.07,40.11 15.36,70.64 31.01,91.33 15.51,20.93 37.4,31.28 65.37,31.28 30.87,0 54.06,-9.84 69.71,-29.52 10.44,-13.87 15.65,-32.54 15.65,-55.75 0,-15.64 -2.89,-28.76 -8.54,-39.1 -5.94,-9.84 -19.28,-19.17 -39.86,-27.5 -96.38,-37.08 -157.4,-70.89 -183.2,-101.41 -35.8,-42.64 -53.63,-101.67 -53.63,-177.1 0,-68.36 15.52,-125.63 46.39,-172.05 30.86,-46.41 78.69,-69.62 143.48,-69.62 61.74,0 107.69,17.66 137.69,52.72 30,35.32 50.72,87.29 62.03,156.16l-112.18 36.32c-4.78,-30.77 -14.06,-54.49 -27.54,-70.88 -13.47,-16.4 -32.75,-24.47 -57.83,-24.47 -31.59,0 -54.2,7.56 -67.97,22.95 -9.13,10.85 -13.63,24.98 -13.63,42.13 0,14.89 3.92,27.5 11.89,37.84 10.87,13.88 48.12,33.3 111.89,58.53 63.77,25.23 108.27,56 133.49,92.58 25.07,36.83 37.53,88.55 37.53,154.65 0,71.89 -17.25,133.95 -51.89,185.67 -34.49,51.71 -85.65,77.7 -153.48,77.7 -61.45,0 -110.15,-21.7 -146.09,-64.84 -35.8,-43.14 -59.28,-101.66 -70.3,-175.83z"/>
   <path id="10" fill="#FEFEFE" fill-rule="nonzero" d="M24277.44 12080.65l-107.83 -33.3c12.17,-76.69 33.19,-133.45 62.9,-170.29 29.71,-36.83 73.92,-55.24 132.47,-55.24 53.19,0 92.9,10.84 118.99,32.79 25.95,21.95 44.35,49.7 54.93,83.5 10.58,33.81 15.94,95.61 15.94,185.93l-1.74 242.18c0,68.87 1.89,119.83 5.66,152.62 3.76,32.8 10.86,67.86 21.3,105.2l-118.27 0c-3.04,-13.62 -6.95,-33.8 -11.45,-60.55 -1.88,-12.36 -3.33,-20.43 -4.2,-24.21 -20.29,34.81 -42.03,60.79 -65.22,78.2 -23.19,17.41 -47.83,26.24 -74.06,26.24 -46.23,0 -82.75,-21.95 -109.42,-65.85 -26.67,-43.64 -40.01,-99.14 -40.01,-166.24 0,-44.15 6.09,-83.76 18.27,-118.57 12.17,-34.56 29.12,-61.3 51.16,-79.72 21.88,-18.41 53.48,-34.56 94.78,-48.43 55.66,-18.17 94.35,-35.32 115.81,-50.96l0 -20.94c0,-40.37 -5.66,-69.12 -16.96,-86.53 -11.45,-17.16 -32.9,-25.73 -64.35,-25.73 -21.31,0 -37.83,7.31 -49.71,22.2 -12.03,14.63 -21.6,40.61 -28.99,77.7zm160.01 168.01c-15.22,8.83 -39.43,19.42 -72.62,31.79 -33.04,12.36 -54.78,24.47 -64.93,36.07 -15.5,19.43 -23.33,43.64 -23.33,73.16 0,29.26 6.23,54.24 18.69,75.43 12.47,21.19 28.27,31.79 47.55,31.79 21.44,0 42.02,-12.37 61.59,-36.84 14.35,-18.92 23.92,-41.62 28.41,-68.87 3.04,-17.66 4.64,-51.46 4.64,-101.16l0 -41.37z"/>
   <path id="11" fill="#FEFEFE" fill-rule="nonzero" d="M24970.66 12624.04l0 -117.56c-16.52,41.88 -38.12,75.18 -64.93,100.15 -26.81,24.73 -55.07,37.09 -84.79,37.09 -30.44,0 -57.68,-11.61 -81.74,-34.82 -24.21,-23.21 -41.6,-56 -52.32,-97.88 -10.87,-42.13 -16.24,-100.15 -16.24,-174.32l0 -498.23 119.14 0 0 361.75c0,110.75 2.18,178.36 6.67,203.33 4.34,24.98 12.32,44.91 24.05,59.29 11.6,14.63 26.39,21.95 44.36,21.95 20.43,0 38.69,-9.84 54.93,-29.27 16.23,-19.42 27.25,-43.64 33.19,-72.65 5.94,-29.01 8.98,-99.65 8.98,-212.41l0 -331.99 119.14 0 0 785.57 -110.44 0z"/>
   <path id="12" fill="#FEFEFE" fill-rule="nonzero" d="M25617.5 12624.04l-110.44 0 0 -115.29c-18.41,44.91 -40.29,78.46 -65.37,101.16 -25.07,22.45 -50.43,33.81 -75.94,33.81 -52.03,0 -96.53,-36.33 -133.63,-109.24 -36.96,-72.9 -55.51,-174.32 -55.51,-304.74 0,-133.2 17.97,-234.61 54.06,-303.99 36.09,-69.37 81.6,-103.93 136.68,-103.93 50.43,0 94.2,36.58 131.01,109.48l0 -391.02 119.14 0 0 1083.76zm-318.27 -407.92c0,84 6.67,144.8 19.85,182.39 19.28,54.49 46.09,81.74 80.58,81.74 27.4,0 50.73,-20.44 69.86,-61.31 19.28,-40.86 28.84,-101.66 28.84,-182.89 0,-90.57 -9.27,-155.66 -27.97,-195.51 -18.69,-39.86 -42.46,-59.79 -71.6,-59.79 -28.26,0 -51.88,19.67 -71.01,59.03 -18.99,39.35 -28.55,98.13 -28.55,176.34z"/>
   <path id="13" fill="#FEFEFE" fill-rule="nonzero" d="M25995.64 12375.8l119.13 34.82c-15.22,75.93 -39.42,133.7 -72.32,173.56 -33.04,39.61 -74.35,59.54 -123.78,59.54 -78.4,0 -136.52,-44.65 -174.06,-133.96 -29.71,-71.64 -44.64,-161.96 -44.64,-271.19 0,-130.17 19.57,-232.34 58.55,-306.01 38.99,-73.91 88.41,-110.74 148.13,-110.74 66.96,0 119.86,38.59 158.7,115.79 38.7,77.19 57.25,195.51 55.51,354.95l-298.27 0c0.86,61.55 10.43,109.48 28.84,143.79 18.26,34.31 41.16,51.46 68.4,51.46 18.71,0 34.35,-8.83 46.97,-26.49 12.75,-17.65 22.32,-46.16 28.84,-85.52zm6.95 -210.39c-0.86,-60.29 -9.71,-106.21 -26.67,-137.49 -16.95,-31.53 -37.53,-47.17 -61.88,-47.17 -25.95,0 -47.39,16.65 -64.35,49.69 -16.96,33.05 -25.22,78.21 -24.93,134.97l177.83 0z"/>
   <path id="14" fill="#FEFEFE" fill-rule="nonzero" d="M26264.49 12345.53l-30.87 -550.71 0 -254.54 128.7 0 0 254.54 -30.44 550.71 -67.39 0zm-25.66 278.51l0 -207.37 119.14 0 0 207.37 -119.14 0z"/>
  </g>
 </g>
</svg>
